<?xml version="1.0" encoding="iso-8859-1"?>
<!-- Generator: Adobe Illustrator 17.0.0, SVG Export Plug-In . SVG Version: 6.00 Build 0)  -->
<!DOCTYPE svg PUBLIC "-//W3C//DTD SVG 1.1//EN" "http://www.w3.org/Graphics/SVG/1.1/DTD/svg11.dtd">
<svg version="1.1" id="Capa_1" xmlns="http://www.w3.org/2000/svg" xmlns:xlink="http://www.w3.org/1999/xlink" x="0px" y="0px"
	 width="64px" height="64px" viewBox="0 0 64 64" style="enable-background:new 0 0 64 64;" xml:space="preserve">
<g>
	<path d="M53.922,21.889l2.984-3.599l-3.85-3.191l-3.038,3.664c-2.807-1.932-5.839-3.401-9.002-4.376l0.589-5.203l-4.968-0.562
		l-0.528,4.664C34.753,13.098,33.381,13,32,13c-1.278,0-2.548,0.092-3.806,0.252l-0.524-4.632l-4.968,0.562l0.578,5.108
		c-3.198,0.952-6.264,2.409-9.104,4.335l-2.925-3.529l-3.85,3.191l2.85,3.438c-2.595,2.349-4.93,5.119-6.9,8.277L1.7,32.651
		l1.651,2.647C9.993,45.945,20.703,52.301,32,52.301s22.007-6.357,28.649-17.004l1.651-2.647l-1.651-2.646
		C58.723,26.917,56.447,24.204,53.922,21.889z M32,47.301c-9.993,0-18.86-5.759-24.407-14.651C13.14,23.759,22.007,18,32,18
		s18.86,5.759,24.407,14.651C50.86,41.543,41.993,47.301,32,47.301z"/>
	<path d="M42.03,29.702c0.232,0.861,0.367,1.762,0.367,2.695c0,5.733-4.664,10.397-10.397,10.397S21.603,38.13,21.603,32.397
		C21.603,26.664,26.267,22,32,22c0.611,0,1.206,0.063,1.788,0.165c0.578-0.663,1.308-1.188,2.138-1.52
		C34.691,20.232,33.374,20,32,20c-6.847,0-12.397,5.55-12.397,12.397c0,6.846,5.55,12.397,12.397,12.397s12.397-5.55,12.397-12.397
		c0-1.767-0.375-3.444-1.041-4.965C43.098,28.295,42.638,29.069,42.03,29.702z"/>
	<path d="M32.41,25.833c0-0.547,0.082-1.073,0.228-1.573c-0.211-0.016-0.423-0.032-0.638-0.032c-4.511,0-8.169,3.657-8.169,8.169
		c0,4.511,3.657,8.169,8.169,8.169s8.169-3.657,8.169-8.169c0-0.466-0.048-0.92-0.123-1.365c-0.634,0.25-1.323,0.392-2.046,0.392
		C34.913,31.424,32.41,28.921,32.41,25.833z"/>
</g>
</svg>
