<?xml version="1.0" encoding="utf-8"?>
<!-- Generator: Adobe Illustrator 16.0.4, SVG Export Plug-In . SVG Version: 6.00 Build 0)  -->
<!DOCTYPE svg PUBLIC "-//W3C//DTD SVG 1.1//EN" "http://www.w3.org/Graphics/SVG/1.1/DTD/svg11.dtd">
<svg version="1.1" id="Layer_1" xmlns="http://www.w3.org/2000/svg" xmlns:xlink="http://www.w3.org/1999/xlink" x="0px" y="0px"
	 width="50px" height="50px" viewBox="0 0 50 50" enable-background="new 0 0 50 50" xml:space="preserve">
<path d="M27.895,19.121v-2.559c0-1.44-1.295-2.606-2.895-2.606c-1.6,0-2.896,1.166-2.896,2.606v2.559h-1.573v3.267
	c0,2.192,1.816,3.993,4.115,4.163v0.919h-2.117v0.708h2.117h0.709h2.118V27.47h-2.118v-0.919c2.299-0.17,4.116-1.971,4.116-4.163
	v-3.267H27.895z M28.761,22.388c0,1.914-1.688,3.471-3.761,3.471s-3.761-1.558-3.761-3.471v-2.559h0.864v2.559
	c0,1.439,1.297,2.606,2.896,2.606c1.599,0,2.894-1.167,2.894-2.606v-2.559h0.867L28.761,22.388L28.761,22.388z M23.946,34.546
	c0.129,0.11,0.189,0.272,0.189,0.485c0,0.216-0.066,0.379-0.198,0.486c-0.136,0.109-0.33,0.164-0.597,0.164h-1.18v-1.298h1.221
	C23.634,34.385,23.821,34.438,23.946,34.546z M31.375,8.125h-12.75c-3.859,0-7,3.14-7,7v19.75c0,3.859,3.141,7,7,7h12.75
	c3.859,0,7-3.141,7-7v-19.75C38.375,11.265,35.234,8.125,31.375,8.125z M17.532,37.852c-1.028,0-1.862-0.834-1.862-1.861
	c0-1.028,0.834-1.862,1.862-1.862c1.028,0,1.862,0.834,1.862,1.862C19.394,37.018,18.561,37.852,17.532,37.852z M25.23,38.434
	h-1.125c-0.025-0.051-0.05-0.164-0.073-0.33c-0.018-0.168-0.025-0.351-0.03-0.539l-0.009-0.453
	c-0.004-0.219-0.068-0.375-0.191-0.469c-0.125-0.092-0.334-0.142-0.623-0.142h-1.018v1.937H21.65h-0.513v-4.896h0.513h1.953
	c0.466,0,0.841,0.129,1.125,0.377c0.286,0.248,0.427,0.578,0.427,0.985c0,0.472-0.159,0.813-0.475,1.029
	c-0.086,0.062-0.183,0.109-0.286,0.15c0.058,0.021,0.114,0.05,0.164,0.075c0.279,0.169,0.424,0.448,0.433,0.839l0.028,0.804
	c0,0.157,0.018,0.271,0.045,0.339c0.032,0.068,0.084,0.118,0.166,0.159V38.434z M29.562,37.999v0.438h-3.711v-4.896h3.599v0.437
	v0.438h-2.577v1.034h2.393v0.421v0.422h-2.393v1.271h2.689V37.999z M31.332,37.238c0.216,0.298,0.516,0.443,0.895,0.443
	c0.301,0,0.549-0.087,0.741-0.259c0.194-0.173,0.31-0.407,0.345-0.7h1.019c-0.063,0.564-0.284,1.014-0.666,1.342
	c-0.379,0.336-0.862,0.5-1.45,0.5c-0.688,0-1.23-0.228-1.639-0.688c-0.402-0.457-0.605-1.075-0.605-1.858
	c0-0.797,0.203-1.435,0.605-1.899c0.408-0.47,0.951-0.704,1.639-0.704c0.582,0,1.062,0.159,1.446,0.47
	c0.381,0.312,0.601,0.741,0.67,1.275h-1.019c-0.035-0.263-0.149-0.474-0.345-0.629c-0.192-0.153-0.44-0.23-0.741-0.23
	c-0.379,0-0.679,0.148-0.891,0.452c-0.217,0.303-0.325,0.725-0.325,1.257C31.011,36.531,31.119,36.943,31.332,37.238z
	 M34.375,30.109h-18.75V15.125c0-1.654,1.346-3,3-3h12.75c1.654,0,3,1.346,3,3V30.109z"/>
</svg>
