<?xml version="1.0" encoding="iso-8859-1"?>
<!-- Generator: Adobe Illustrator 17.0.0, SVG Export Plug-In . SVG Version: 6.00 Build 0)  -->
<!DOCTYPE svg PUBLIC "-//W3C//DTD SVG 1.1//EN" "http://www.w3.org/Graphics/SVG/1.1/DTD/svg11.dtd">
<svg version="1.1" id="Capa_1" xmlns="http://www.w3.org/2000/svg" xmlns:xlink="http://www.w3.org/1999/xlink" x="0px" y="0px"
	 width="64px" height="64px" viewBox="0 0 64 64" style="enable-background:new 0 0 64 64;" xml:space="preserve">
<g>
	<path d="M30.987,58.73c16.835,0.776,22.402-7.536,24.159-11.909c-4.322,3.121-10.521,4.702-18.51,4.703
		c-0.741,0-1.497-0.014-2.268-0.041c-15.761-0.554-22.656-4.528-25.666-7.764c-0.09-0.097-0.171-0.193-0.254-0.29
		C9.622,48.732,14.097,57.952,30.987,58.73z"/>
	<path d="M61.649,43.063c-1.469-0.774-3.096-1.292-4.744-1.533c-0.543-0.384-1.367-0.586-2.293-0.545
		c-1.436-2.86-4.274-6.987-9.453-9.826l6.593-12.467c0.846,0.311,1.826,0.17,2.549-0.47c1.041-0.926,1.134-2.521,0.208-3.563
		s-2.521-1.135-3.563-0.209c-1.04,0.925-1.134,2.521-0.207,3.562c0.021,0.024,0.048,0.042,0.07,0.065l-6.645,12.566
		c-1.1-0.536-2.304-1.005-3.607-1.402l4.222-14.53c1.047,0.158,2.143-0.238,2.82-1.147c0.977-1.312,0.706-3.169-0.607-4.148
		c-1.312-0.979-3.169-0.707-4.148,0.606c-0.979,1.312-0.706,3.169,0.607,4.147c0.031,0.023,0.065,0.038,0.097,0.059l-4.259,14.661
		c-0.482-0.121-0.965-0.242-1.474-0.34l-0.017-7.48c0.893-0.122,1.693-0.707,2.029-1.611c0.482-1.307-0.182-2.759-1.489-3.243
		c-1.307-0.485-2.759,0.181-3.244,1.488c-0.484,1.306,0.183,2.758,1.489,3.243c0.031,0.012,0.062,0.014,0.093,0.024l0.018,7.403
		c-1.278-0.198-2.615-0.344-4.06-0.385c-1.442-0.041-2.788,0.005-4.077,0.097l0.665-4.28c0.627,0.013,1.241-0.303,1.569-0.889
		c0.475-0.845,0.175-1.916-0.672-2.391c-0.846-0.476-1.916-0.175-2.391,0.671c-0.476,0.845-0.175,1.916,0.671,2.392
		c0.02,0.011,0.042,0.016,0.062,0.027l-0.702,4.519c-1.529,0.141-2.95,0.369-4.269,0.666l-2.406-9.067
		c0.978-0.405,1.713-1.309,1.823-2.437c0.161-1.629-1.029-3.08-2.659-3.24c-1.631-0.161-3.081,1.029-3.241,2.659
		c-0.16,1.63,1.029,3.08,2.659,3.24c0.039,0.004,0.076-0.001,0.114,0l2.434,9.175c-1.286,0.35-2.469,0.762-3.55,1.223l-5.285-14.146
		c0.933-0.499,1.576-1.47,1.576-2.604c0-1.638-1.328-2.964-2.965-2.964c-1.639,0-2.965,1.326-2.965,2.964
		c0,1.637,1.326,2.964,2.965,2.964c0.039,0,0.074-0.009,0.112-0.012L17.466,30.9c-3.829,1.875-6.268,4.279-7.699,6.112
		c-1.078-0.123-2.058,0.067-2.673,0.502c-1.648,0.242-3.275,0.759-4.744,1.533c-0.252,0.133-0.595,0.528-0.182,0.707
		c0.428,0.185,0.978,0.01,1.365-0.193c0.463-0.244,0.954-0.438,1.455-0.606c-0.713,0.443-1.367,1.004-1.957,1.588
		c-0.299,0.295-0.206,0.66,0.204,0.763c0.451,0.114,1.034-0.038,1.366-0.366c0.361-0.357,0.826-0.843,1.338-1.2
		c-0.715,0.889-1.182,1.973-1.825,2.921c-0.198,0.292,0.713,0.196,0.772,0.185c0.368-0.066,0.906-0.193,1.132-0.526
		c0.468-0.689,0.836-1.455,1.284-2.156c0.271,0.218,0.593,0.415,0.955,0.577c-0.003,0.025-0.01,0.05-0.013,0.075
		c1.861,3.352,7.719,8.699,26.169,9.349c9.565,0.332,16.65-1.452,21.096-5.309c0-0.003,0-0.007,0-0.01
		c0.455-0.179,0.861-0.404,1.187-0.667c0.448,0.702,0.816,1.467,1.284,2.156c0.226,0.333,0.764,0.46,1.132,0.526
		c0.06,0.011,0.971,0.106,0.772-0.185c-0.644-0.949-1.11-2.033-1.825-2.921c0.512,0.357,0.977,0.843,1.338,1.2
		c0.332,0.328,0.915,0.48,1.366,0.366c0.41-0.104,0.503-0.468,0.204-0.763c-0.59-0.583-1.244-1.145-1.957-1.588
		c0.501,0.167,0.992,0.362,1.455,0.606c0.387,0.204,0.938,0.378,1.365,0.193C62.244,43.591,61.901,43.196,61.649,43.063z"/>
</g>
</svg>
