<?xml version="1.0" encoding="utf-8"?>
<!-- Generator: Adobe Illustrator 16.0.4, SVG Export Plug-In . SVG Version: 6.00 Build 0)  -->
<!DOCTYPE svg PUBLIC "-//W3C//DTD SVG 1.1//EN" "http://www.w3.org/Graphics/SVG/1.1/DTD/svg11.dtd">
<svg version="1.1" id="Layer_1" xmlns="http://www.w3.org/2000/svg" xmlns:xlink="http://www.w3.org/1999/xlink" x="0px" y="0px"
	 width="72.818px" height="72.814px" viewBox="0 0 72.818 72.814" enable-background="new 0 0 72.818 72.814" xml:space="preserve">
<g>
	<path fill="#1B1819" d="M26.158,19.48c0-1.412-1.147-2.562-2.562-2.562c-1.412,0-2.562,1.149-2.562,2.562v4.875
		c0,1.413,1.148,2.562,2.562,2.562c1.414,0,2.562-1.149,2.562-2.562V19.48z"/>
	<path fill="#1B1819" d="M37.533,26.917c1.414,0,2.563-1.149,2.563-2.562V19.48c0-1.412-1.148-2.562-2.563-2.562
		c-1.412,0-2.562,1.149-2.562,2.562v4.875C34.971,25.768,36.121,26.917,37.533,26.917z"/>
	<path fill="#1B1819" d="M44.846,32.855c1.414,0,2.562-1.148,2.562-2.562v-4.875c0-1.413-1.147-2.562-2.562-2.562
		c-1.412,0-2.562,1.149-2.562,2.562v4.875C42.283,31.706,43.434,32.855,44.846,32.855z"/>
	<path fill="#1B1819" d="M30.565,26.917c1.414,0,2.562-1.149,2.562-2.562V19.48c0-1.412-1.147-2.562-2.562-2.562
		c-1.412,0-2.562,1.149-2.562,2.562v4.875C28.002,25.768,29.153,26.917,30.565,26.917z"/>
	<path fill="#1B1819" d="M57.323,24.817L45.039,12.532c-2.223-2.223-5.454-2.286-5.817-2.286H20.435
		c-3.047,0-5.522,2.478-5.522,5.522v17.46c0,1.104,0.895,2,2,2h1.166v4.583H16.91c-1.104,0-2,0.896-2,2v5.209c0,1.104,0.896,2,2,2
		h1.375v0.291H16.91c-1.104,0-2,0.896-2,2v5.732c0,3.045,2.479,5.523,5.522,5.523h31.953c3.047,0,5.522-2.479,5.522-5.523V26.23
		C57.908,25.7,57.698,25.192,57.323,24.817z M53.908,57.046c0,0.84-0.684,1.523-1.522,1.523H20.435
		c-0.842,0-1.523-0.686-1.523-1.523v-3.732h1.375c1.104,0,2-0.896,2-2V47.02c0-1.104-0.896-2-2-2h-1.377v-1.207h1.166
		c1.105,0,2-0.896,2-2V33.23c0-1.104-0.895-2-2-2h-1.166V15.77c0-0.84,0.685-1.522,1.523-1.522H39.22
		c0.526,0.004,2.092,0.213,2.991,1.115l11.697,11.696V57.046z"/>
	<path fill="#1B1819" d="M25.742,45.147c0,1.104,0.896,2,2,2h19.75c1.104,0,2-0.896,2-2s-0.896-2-2-2h-19.75
		C26.637,43.147,25.742,44.042,25.742,45.147z"/>
	<path fill="#1B1819" d="M47.492,50.229h-19.75c-1.104,0-2,0.896-2,2c0,1.105,0.896,2,2,2h19.75c1.104,0,2-0.895,2-2
		C49.492,51.126,48.596,50.229,47.492,50.229z"/>
</g>
</svg>
