<?xml version="1.0" encoding="utf-8"?>
<!-- Generator: Adobe Illustrator 16.0.4, SVG Export Plug-In . SVG Version: 6.00 Build 0)  -->
<!DOCTYPE svg PUBLIC "-//W3C//DTD SVG 1.1//EN" "http://www.w3.org/Graphics/SVG/1.1/DTD/svg11.dtd">
<svg version="1.1" id="Layer_1" xmlns="http://www.w3.org/2000/svg" xmlns:xlink="http://www.w3.org/1999/xlink" x="0px" y="0px"
	 width="24px" height="24px" viewBox="0 0 24 24" enable-background="new 0 0 24 24" xml:space="preserve">
<path d="M23.922,12.611l-0.001-0.002L21.677,7H20.77C19.855,2.998,16.273,0,12,0C7.726,0,4.145,2.998,3.232,7H2.323l-2.244,5.609
	v0.002L0,12.809V24h24V12.809L23.922,12.611z M20.882,10.396L21.523,12h-1.021C20.67,11.489,20.799,10.949,20.882,10.396z M12,2
	c3.859,0,7,3.14,7,7c0,1.024-0.25,2.151-0.637,3h-3.75C15.455,11.265,16,10.198,16,9c0-2.2-1.8-4-4-4S8,6.8,8,9
	c0,1.198,0.545,2.265,1.387,3H5.692C5.305,11.254,5,9.968,5,9C5,5.14,8.14,2,12,2z M10.7,9c0-0.7,0.6-1.3,1.3-1.3s1.3,0.6,1.3,1.3
	s-0.6,1.3-1.3,1.3S10.7,9.7,10.7,9z M3.533,12H2.477l0.651-1.626C3.216,10.914,3.352,11.473,3.533,12z M2,22v-8h20v8H2z"/>
</svg>
