<?xml version="1.0" encoding="iso-8859-1"?>
<!-- Generator: Adobe Illustrator 16.0.4, SVG Export Plug-In . SVG Version: 6.00 Build 0)  -->
<!DOCTYPE svg PUBLIC "-//W3C//DTD SVG 1.1//EN" "http://www.w3.org/Graphics/SVG/1.1/DTD/svg11.dtd">
<svg version="1.1" id="Capa_1" xmlns="http://www.w3.org/2000/svg" xmlns:xlink="http://www.w3.org/1999/xlink" x="0px" y="0px"
	 width="42px" height="44px" viewBox="0 0 42 44" style="enable-background:new 0 0 42 44;" xml:space="preserve">
<g id="_x32_24._Phone">
	<g>
		<path d="M20,24.001c1.104,0,2-0.896,2-2c0-1.105-0.896-2-2-2s-2,0.895-2,2C18,23.105,18.896,24.001,20,24.001z M20,18.001
			c1.104,0,2-0.896,2-2c0-1.105-0.896-2-2-2s-2,0.895-2,2C18,17.105,18.896,18.001,20,18.001z M10,2.001H6c-2.21,0-4,1.79-4,4V10
			c0,1.478,0.809,2.753,2,3.445v17.11C2.809,31.248,2,32.523,2,34v4c0,2.21,1.79,4.001,4,4.001h4c2.209,0,4-1.791,4-4.001v-4
			c0-1.477-0.81-2.752-2-3.444v-17.11c1.19-0.692,2-1.968,2-3.445V6.001C14,3.791,12.209,2.001,10,2.001z M20,30
			c1.104,0,2-0.896,2-1.999c0-1.105-0.896-2-2-2s-2,0.895-2,2C18,29.104,18.896,30,20,30z M38,4H15.65
			c0.222,0.626,0.349,1.298,0.349,2v2.001H38v28H15.999V38c0,0.702-0.127,1.374-0.349,2H38c2.209,0,4-1.79,4-4V8
			C42,5.791,40.209,4,38,4z M26,18.001c1.104,0,2-0.896,2-2c0-1.105-0.896-2-2-2s-2,0.895-2,2C24,17.105,24.896,18.001,26,18.001z
			 M32,30.001c1.104,0,2-0.896,2-2c0-1.105-0.896-2-2-2s-2,0.895-2,2C30,29.104,30.896,30.001,32,30.001z M32,18.001
			c1.104,0,2-0.896,2-2c0-1.105-0.896-2-2-2s-2,0.895-2,2C30,17.105,30.896,18.001,32,18.001z M26,24.001c1.104,0,2-0.896,2-2
			c0-1.105-0.896-2-2-2s-2,0.895-2,2C24,23.105,24.896,24.001,26,24.001z M26,30.001c1.104,0,2-0.896,2-2c0-1.105-0.896-2-2-2
			s-2,0.895-2,2C24,29.104,24.896,30.001,26,30.001z M32,24.001c1.104,0,2-0.896,2-2c0-1.105-0.896-2-2-2s-2,0.895-2,2
			C30,23.105,30.896,24.001,32,24.001z"/>
	</g>
</g>
<g>
</g>
<g>
</g>
<g>
</g>
<g>
</g>
<g>
</g>
<g>
</g>
<g>
</g>
<g>
</g>
<g>
</g>
<g>
</g>
<g>
</g>
<g>
</g>
<g>
</g>
<g>
</g>
<g>
</g>
</svg>
