<?xml version="1.0" encoding="iso-8859-1"?>
<!-- Generator: Adobe Illustrator 17.1.0, SVG Export Plug-In . SVG Version: 6.00 Build 0)  -->
<!DOCTYPE svg PUBLIC "-//W3C//DTD SVG 1.1//EN" "http://www.w3.org/Graphics/SVG/1.1/DTD/svg11.dtd">
<svg version="1.1" id="Capa_1" xmlns="http://www.w3.org/2000/svg" xmlns:xlink="http://www.w3.org/1999/xlink" x="0px" y="0px"
	 viewBox="0 0 200 200" style="enable-background:new 0 0 200 200;" xml:space="preserve">
<g>
	<path d="M188.353,158.702l-19.974-19.974c-1.243-1.243-2.861-1.928-4.555-1.928c-2.053,0-3.953,0.991-5.212,2.718
		c-5.34,7.329-11.764,13.752-19.093,19.093c-1.571,1.145-2.555,2.868-2.7,4.728c-0.144,1.845,0.552,3.682,1.909,5.039l19.974,19.974
		c3.961,3.961,9.228,6.143,14.829,6.143c5.603,0,10.867-2.182,14.823-6.145C196.528,180.178,196.528,166.877,188.353,158.702z"/>
	<path d="M86.688,169.872c45.868,0,83.184-37.316,83.184-83.184S132.556,3.504,86.688,3.504C40.82,3.504,3.504,40.82,3.504,86.688
		S40.82,169.872,86.688,169.872z M86.688,28.472c32.1,0,58.216,26.115,58.216,58.216s-26.115,58.216-58.216,58.216
		s-58.216-26.115-58.216-58.216S54.588,28.472,86.688,28.472z"/>
</g>
</svg>
