<?xml version="1.0" encoding="utf-8"?>
<!-- Generator: Adobe Illustrator 17.0.0, SVG Export Plug-In . SVG Version: 6.00 Build 0)  -->
<!DOCTYPE svg PUBLIC "-//W3C//DTD SVG 1.1//EN" "http://www.w3.org/Graphics/SVG/1.1/DTD/svg11.dtd">
<svg version="1.1" id="图层_1" xmlns="http://www.w3.org/2000/svg" xmlns:xlink="http://www.w3.org/1999/xlink" x="0px" y="0px"
	 width="16px" height="16px" viewBox="0 0 16 16" enable-background="new 0 0 16 16" xml:space="preserve">
<g>
	<path fill="#FF5534" d="M0.056,6.36l0.365,0.277c0,0,3.408-1.792,7.811-1.392c3.803,0.24-0.869,2.538-2.844,2.692
		C4.564,8.014,4.237,7.802,4.41,7.629c0.272-0.272,5.057-0.907,6.999-0.643c0.612,0.083,1.181,0.107,1.715,0.241
		c1.014,0.253,0.419,1.301-0.364,2.452c-0.949,1.396-1.861,2.36-2.45,3.093c-0.612,0.763,0.347,0.4,0.864,0.4
		c0.518,0,1.549-1.364,2.689-2.81c0.734-0.931,1.299-1.897,1.174-2.555c-0.283-1.489-2.811-1.936-8.956-0.977
		C5.388,6.939,4.598,7.102,4.124,7.371C3.292,7.917,3.945,8.17,4.267,8.309c0.251,0.108,0.67,0.12,0.67,0.12s0.73-0.062,1.128-0.189
		c0.398-0.127,3.75-0.811,4.415-2.522c0.121-0.312,0.094-0.427,0.068-0.805c-0.296-0.386-0.223-0.319-0.881-0.429
		C7.034,4.043,1.478,5.095,0.056,6.36z"/>
	<path fill="#FF5534" d="M3.573,2.958c0,0-0.925,1.488-0.846,1.634C2.806,4.738,3.282,4.537,3.4,4.516
		c0.118-0.021,0.267-0.14,0.302-0.445c0.036-0.305-0.182-0.424,0.248-0.644c0.43-0.22,0.383-0.312,0.22-0.399
		C4.008,2.94,3.927,2.724,3.573,2.958z"/>
	<path fill="#FF5534" d="M2.331,6.613l0.42-0.306c0,0,0.24-0.035,0.242,0.206c0.001,0.24-0.732,2.098-0.741,3.56
		c-0.008,1.462-0.555,0.708-0.555,0.708S2.447,7.212,2.331,6.613z"/>
	<path fill="#FF5534" d="M12.538,2.528c0,0-0.569,0.88,0.484,0.721c1.026-0.155,0.6-0.721,0.6-0.721s-0.155-0.053-0.213-0.16
		c-0.058-0.106-0.019-0.16-0.019-0.16s-0.174-0.353-0.426-0.16c-0.252,0.194-0.58,0.16-0.503,0.319
		C12.538,2.528,12.422,2.465,12.538,2.528z"/>
</g>
</svg>
