<?xml version="1.0" encoding="utf-8"?>
<!-- Generator: Adobe Illustrator 17.0.0, SVG Export Plug-In . SVG Version: 6.00 Build 0)  -->
<!DOCTYPE svg PUBLIC "-//W3C//DTD SVG 1.1//EN" "http://www.w3.org/Graphics/SVG/1.1/DTD/svg11.dtd">
<svg version="1.1" id="图层_1" xmlns="http://www.w3.org/2000/svg" xmlns:xlink="http://www.w3.org/1999/xlink" x="0px" y="0px"
	 width="16px" height="16px" viewBox="0 0 16 16" enable-background="new 0 0 16 16" xml:space="preserve">
<g>
	<g>
		<path fill="none" stroke="#FF5534" stroke-width="0.75" stroke-miterlimit="10" d="M14.132,1.388
			c0.101,0.075,0.184,0.243,0.184,0.373c0,0,0,4.473,0,6.357c0,3.767-6.12,7.417-6.12,7.417c-0.108,0.064-0.284,0.064-0.392,0
			c0,0-6.12-3.65-6.12-7.417c0-1.884,0-6.357,0-6.357c0-0.13,0.082-0.297,0.184-0.373c0,0,1.079-0.805,6.132-0.805
			S14.132,1.388,14.132,1.388z"/>
		<path fill="none" stroke="#FF5534" stroke-width="0.75" stroke-miterlimit="10" d="M11.387,2.428
			C10.658,2.285,9.578,2.162,8,2.162c-3.789,0-4.737,0.706-4.737,0.706s0,3.532,0,4.944c0,0.681,0.278,1.359,0.695,2
			c0,0,0.394,0.046,3.828-3.336S11.387,2.428,11.387,2.428z"/>
		<path fill="none" stroke="#FF5534" stroke-width="0.75" stroke-miterlimit="10" d="M5.174,11.268C6.489,12.562,8,13.464,8,13.464
			s4.737-2.825,4.737-5.651c0-0.966,0-2.923,0-4.063c0,0-0.48,0.882-3.673,4.123S5.174,11.268,5.174,11.268z"/>
	</g>
</g>
</svg>
