<?xml version="1.0" encoding="utf-8"?>
<!-- Generator: Adobe Illustrator 17.0.0, SVG Export Plug-In . SVG Version: 6.00 Build 0)  -->
<!DOCTYPE svg PUBLIC "-//W3C//DTD SVG 1.1//EN" "http://www.w3.org/Graphics/SVG/1.1/DTD/svg11.dtd">
<svg version="1.1" id="图层_1" xmlns="http://www.w3.org/2000/svg" xmlns:xlink="http://www.w3.org/1999/xlink" x="0px" y="0px"
	 width="16px" height="16px" viewBox="0 0 16 16" enable-background="new 0 0 16 16" xml:space="preserve">
<g>
	
		<path fill="none" stroke="#FF5534" stroke-width="0.75" stroke-linecap="round" stroke-linejoin="round" stroke-miterlimit="10" d="
		M6.393,0.788h-5.44c-0.25,0-0.453,0.203-0.453,0.453v5.439c0,0.25,0.203,0.453,0.453,0.453h5.44c0.25,0,0.453-0.203,0.453-0.453
		V1.242C6.846,0.992,6.643,0.788,6.393,0.788z"/>
	
		<path fill="none" stroke="#FF5534" stroke-width="0.75" stroke-linecap="round" stroke-linejoin="round" stroke-miterlimit="10" d="
		M15.047,0.788h-5.44c-0.25,0-0.453,0.203-0.453,0.453v5.439c0,0.25,0.203,0.453,0.453,0.453h5.44c0.25,0,0.453-0.203,0.453-0.453
		V1.242C15.5,0.992,15.297,0.788,15.047,0.788z"/>
	
		<path fill="none" stroke="#FF5534" stroke-width="0.75" stroke-linecap="round" stroke-linejoin="round" stroke-miterlimit="10" d="
		M6.393,8.865h-5.44c-0.25,0-0.453,0.203-0.453,0.453v5.439c0,0.25,0.203,0.453,0.453,0.453h5.44c0.25,0,0.453-0.203,0.453-0.453
		V9.319C6.846,9.069,6.643,8.865,6.393,8.865z"/>
	
		<path fill="none" stroke="#FF5534" stroke-width="0.75" stroke-linecap="round" stroke-linejoin="round" stroke-miterlimit="10" d="
		M15.047,8.865h-5.44c-0.25,0-0.453,0.203-0.453,0.453v5.439c0,0.25,0.203,0.453,0.453,0.453h5.44c0.25,0,0.453-0.203,0.453-0.453
		V9.319C15.5,9.069,15.297,8.865,15.047,8.865z"/>
</g>
</svg>
